# Blender v3.0.0 OBJ File: ''
# www.blender.org
mtllib door.mtl
v -1.763800 8.122675 -0.123011
v -1.769300 8.111062 -0.123011
v -1.755500 8.132475 -0.123011
v -1.712050 8.047913 -0.159884
v -1.744938 8.139788 -0.123011
v -1.732838 8.144113 -0.123011
v -1.724850 8.046863 -0.123011
v -1.712050 8.047913 -0.123011
v -1.720037 8.145175 -0.123011
v -1.707387 8.142875 -0.123011
v -1.695775 8.137375 -0.123011
v -1.770537 8.085625 -0.123011
v -1.766212 8.073525 -0.123011
v -1.685975 8.129075 -0.123011
v -1.678663 8.118512 -0.123011
v -1.699950 8.052250 -0.123011
v -1.674338 8.106413 -0.123011
v -1.673288 8.093613 -0.123011
v -1.675588 8.080962 -0.123011
v -1.689387 8.059563 -0.123011
v -1.681075 8.069350 -0.123011
v -1.758900 8.062963 -0.123011
v -1.771600 8.098425 -0.123011
v -1.737488 8.049163 -0.123011
v -1.749100 8.054650 -0.123011
v -1.680650 3.248863 -0.123012
v -1.688800 3.258800 -0.123012
v -1.679037 3.199675 -0.123012
v -1.674513 3.211700 -0.123012
v -1.712062 3.270888 -0.123012
v -1.711262 3.270813 -0.123012
v -1.699237 3.266275 -0.123012
v -1.764238 3.196900 -0.123012
v -1.756088 3.186963 -0.123012
v -1.732813 3.174875 -0.144310
v -1.732813 3.174875 -0.123012
v -1.720837 3.173700 -0.123012
v -1.720837 3.173700 -0.144310
v -1.733625 3.174950 0.293488
v -1.736725 3.269975 -0.144310
v -1.733625 3.174950 -0.123012
v -1.745650 3.179487 -0.123012
v -1.673250 3.224488 -0.123012
v -1.675350 3.237163 -0.123012
v -1.724050 3.272063 -0.123012
v -1.758350 3.256525 -0.123012
v -1.748425 3.264675 -0.123012
v -1.770362 3.234062 -0.123012
v -1.771625 3.221275 -0.123012
v -1.736725 3.269975 -0.123012
v -1.696463 3.181087 -0.123012
v -1.686525 3.189238 -0.123012
v -1.708163 3.175787 -0.123012
v -1.765838 3.246088 -0.123012
v -1.769537 3.208600 -0.123012
v -2.460625 0.000000 -0.123012
v -2.460625 0.000000 -0.369075
v 2.460625 0.000000 -0.369075
v 2.460625 0.000000 -0.123012
v -2.460625 11.318900 -0.369073
v -2.460625 11.318900 -0.123011
v 2.460625 11.318900 -0.123011
v 2.460625 11.318900 -0.369073
v -1.476375 2.214562 -0.369075
v -1.450175 2.312988 -0.369075
v -1.326712 2.776862 -0.369075
v -1.203787 3.345600 -0.369074
v -1.107900 3.919525 -0.369074
v -1.041512 4.478350 -0.369074
v -1.039263 4.497325 -0.369074
v -1.033612 4.576775 -0.369074
v -0.998012 5.077737 -0.369074
v -0.984250 5.659450 -0.369074
v -0.998012 6.241162 -0.369074
v -1.033612 6.742125 -0.369074
v -1.039263 6.821562 -0.369074
v -1.041512 6.840550 -0.369074
v -1.107900 7.399375 -0.369074
v -1.203787 7.973300 -0.369074
v -1.326712 8.542038 -0.369074
v -1.450175 9.005900 -0.369074
v -1.476375 9.104325 -0.369074
v -0.984250 9.104325 -0.369074
v -0.958050 9.005900 -0.369074
v -0.834588 8.542038 -0.369074
v -0.711662 7.973300 -0.369074
v -0.615775 7.399375 -0.369074
v -0.549388 6.840550 -0.369074
v -0.547137 6.821562 -0.369074
v -0.541488 6.742125 -0.369074
v -0.505888 6.241162 -0.369074
v -0.492125 5.659450 -0.369074
v -0.505888 5.077737 -0.369074
v -0.541488 4.576775 -0.369074
v -0.547137 4.497325 -0.369074
v -0.549388 4.478350 -0.369074
v -0.615775 3.919525 -0.369074
v -0.711662 3.345600 -0.369074
v -0.834588 2.776862 -0.369075
v -0.958050 2.312988 -0.369075
v -0.984250 2.214562 -0.369075
v 2.460625 4.478350 -0.123012
v 2.460625 2.312988 -0.123012
v 2.460625 2.312988 -0.221437
v 2.460625 4.478350 -0.221437
v 2.460625 4.576775 -0.221437
v 2.460625 6.742125 -0.221436
v 2.460625 6.840550 -0.221436
v 2.460625 9.005900 -0.221436
v 2.460625 9.104325 -0.221436
v 2.460625 9.104325 -0.123011
v 2.460625 2.214562 -0.221437
v 2.460625 2.214562 -0.123012
v 2.460625 9.005900 -0.123011
v 2.460625 6.840550 -0.123011
v 2.460625 6.742125 -0.123011
v 2.460625 4.576775 -0.123012
v -0.984250 2.214562 -0.123012
v -2.460625 2.214562 -0.123012
v -1.476375 2.214562 -0.123012
v -2.460625 9.104325 -0.123011
v -2.460625 9.104325 -0.221436
v -2.460625 9.005900 -0.221436
v -2.460625 6.840550 -0.221436
v -2.460625 6.742125 -0.221436
v -2.460625 4.576775 -0.221437
v -2.460625 4.478350 -0.221437
v -2.460625 2.312988 -0.221437
v -2.460625 2.214562 -0.221437
v -2.460625 2.312988 -0.123012
v -2.460625 4.478350 -0.123012
v -2.460625 4.576775 -0.123012
v -2.460625 6.742125 -0.123011
v -2.460625 6.840550 -0.123011
v -2.460625 9.005900 -0.123011
v -0.984250 9.104325 -0.123011
v -1.476375 9.104325 -0.123011
v -1.450175 2.312988 -0.123012
v -1.326712 2.776862 -0.123012
v -1.203787 3.345600 -0.123012
v -1.107900 3.919525 -0.123012
v -1.041512 4.478350 -0.123012
v -1.033612 4.576775 -0.123012
v -0.998012 5.077737 -0.123012
v -0.984250 5.659450 -0.123012
v -0.998012 6.241162 -0.123011
v -1.033612 6.742125 -0.123011
v -1.041512 6.840550 -0.123011
v -1.107900 7.399375 -0.123011
v -1.203787 7.973300 -0.123011
v -1.326712 8.542038 -0.123011
v -1.450175 9.005900 -0.123011
v -1.450175 9.005900 -0.221436
v -1.476375 9.104325 -0.221436
v -0.984250 9.104325 -0.221436
v -0.541488 6.742125 -0.221436
v -0.547137 6.821562 -0.221436
v -0.549388 6.840550 -0.221436
v -0.549388 4.478350 -0.221437
v -0.547137 4.497325 -0.221437
v -0.541488 4.576775 -0.221437
v -0.541488 4.576775 -0.123012
v -0.505888 5.077737 -0.123012
v -0.492125 5.659450 -0.123012
v -0.505888 6.241162 -0.123011
v -0.541488 6.742125 -0.123011
v -0.958050 2.312988 -0.123012
v -0.834588 2.776862 -0.123012
v -0.711662 3.345600 -0.123012
v -0.615775 3.919525 -0.123012
v -0.549388 4.478350 -0.123012
v -0.549388 6.840550 -0.123011
v -0.615775 7.399375 -0.123011
v -0.711662 7.973300 -0.123011
v -0.834588 8.542038 -0.123011
v -0.958050 9.005900 -0.123011
v -1.450175 2.312988 -0.221437
v -1.476375 2.214562 -0.221437
v -0.984250 2.214562 -0.221437
v -0.958050 2.312988 -0.221437
v -0.958050 9.005900 -0.221436
v -1.041512 6.840550 -0.221436
v -1.033612 6.742125 -0.221436
v -1.033612 4.576775 -0.221437
v -1.041512 4.478350 -0.221437
v -1.039263 4.497325 -0.221437
v -1.039263 6.821562 -0.221436
v -1.039263 6.821562 -0.221436
v -1.107900 7.399375 -0.221436
v -1.107900 7.399375 -0.319861
v -1.039263 6.821562 -0.319861
v -0.984250 2.214562 -0.319862
v -1.476375 2.214562 -0.319862
v -1.326712 2.776862 -0.319862
v -0.834588 2.776862 -0.319862
v -1.203787 3.345600 -0.319862
v -0.711662 3.345600 -0.319862
v -1.107900 3.919525 -0.319862
v -0.615775 3.919525 -0.319862
v -1.039263 4.497325 -0.319862
v -0.547137 4.497325 -0.319862
v -0.998012 5.077737 -0.319862
v -0.505888 5.077737 -0.319862
v -0.984250 5.659450 -0.319862
v -0.492125 5.659450 -0.319862
v -0.998012 6.241162 -0.319862
v -0.505888 6.241162 -0.319862
v -0.547137 6.821562 -0.319861
v -0.615775 7.399375 -0.319861
v -1.203787 7.973300 -0.319861
v -0.711662 7.973300 -0.319861
v -1.326712 8.542038 -0.319861
v -0.834588 8.542038 -0.319861
v -1.476375 9.104325 -0.319861
v -0.984250 9.104325 -0.319861
v -1.203787 3.345600 -0.221437
v -1.107900 3.919525 -0.221437
v -0.505888 5.077737 -0.221437
v -0.547137 4.497325 -0.221437
v -0.998012 6.241162 -0.221436
v -0.834588 8.542038 -0.221436
v -0.711662 7.973300 -0.221436
v -0.505888 6.241162 -0.221436
v -0.492125 5.659450 -0.221437
v -1.326712 2.776862 -0.221437
v -1.476375 2.214562 -0.221437
v -0.984250 2.214562 -0.221437
v -0.984250 5.659450 -0.221437
v -0.615775 3.919525 -0.221437
v -1.476375 9.104325 -0.221436
v -0.984250 9.104325 -0.221436
v -0.834588 2.776862 -0.221437
v -0.547137 6.821562 -0.221436
v -1.203787 7.973300 -0.221436
v -0.711662 3.345600 -0.221437
v -1.039263 4.497325 -0.221437
v -0.998012 5.077737 -0.221437
v -0.615775 7.399375 -0.221436
v -1.326712 8.542038 -0.221436
vt 0.000000 0.000000
vt 0.000000 0.000000
vt 0.000000 0.000000
vt 0.000000 0.000000
vt 0.000000 0.000000
vt 0.000000 0.000000
vt 0.000000 0.000000
vt 0.000000 0.000000
vt 0.000000 0.000000
vt 0.000000 0.000000
vt 0.000000 0.000000
vt 0.000000 0.000000
vt 0.000000 0.000000
vt 0.000000 0.000000
vt 0.000000 0.000000
vt 0.000000 0.000000
vt 0.000000 0.000000
vt 0.000000 0.000000
vt 0.000000 0.000000
vt 0.000000 0.000000
vt 0.000000 0.000000
vt 0.000000 0.000000
vt 0.000000 0.000000
vt 0.000000 0.000000
vt 0.000000 0.000000
vt 0.000000 0.000000
vt 0.000000 0.000000
vt 0.000000 0.000000
vt 0.000000 0.000000
vt 0.000000 0.000000
vt 0.000000 0.000000
vt 0.000000 0.000000
vt 0.000000 0.000000
vt 0.000000 0.000000
vt 0.000000 0.000000
vt 0.000000 0.000000
vt 0.000000 0.000000
vt 0.000000 0.000000
vt 0.000000 0.000000
vt 0.000000 0.000000
vt 0.000000 0.000000
vt 0.000000 0.000000
vt 0.000000 0.000000
vt 0.000000 0.000000
vt 0.000000 0.000000
vt 0.000000 0.000000
vt 0.000000 0.000000
vt 0.000000 0.000000
vt 0.000000 0.000000
vt 0.000000 0.000000
vt 0.000000 0.000000
vt 0.000000 0.000000
vt 0.000000 0.000000
vt 0.000000 0.000000
vt 0.000000 0.000000
vt 0.000000 0.000000
vt 0.000000 0.000000
vt 0.000000 0.000000
vt 0.000000 0.000000
vt 0.000000 0.000000
vt 0.000000 0.000000
vt 0.000000 0.000000
vt 0.000000 0.000000
vt 0.000000 0.000000
vt 0.000000 0.000000
vt 0.000000 0.000000
vt 0.000000 0.000000
vt 0.000000 0.000000
vt 0.000000 0.000000
vt 0.000000 0.000000
vt 0.000000 0.000000
vt 0.000000 0.000000
vt 0.000000 0.000000
vt 0.000000 0.000000
vt 0.000000 0.000000
vt 0.000000 0.000000
vt 0.000000 0.000000
vt 0.000000 0.000000
vt 0.000000 0.000000
vt 0.000000 0.000000
vt 0.000000 0.000000
vt 0.000000 0.000000
vt 0.000000 0.000000
vt 0.000000 0.000000
vt 0.000000 0.000000
vt 0.000000 0.000000
vt 0.000000 0.000000
vt 0.000000 0.000000
vt 0.000000 0.000000
vt 0.000000 0.000000
vt 0.000000 0.000000
vt 0.000000 0.000000
vt 0.000000 0.000000
vt 0.000000 0.000000
vt 0.000000 0.000000
vt 0.000000 0.000000
vt 0.000000 0.000000
vt 0.000000 0.000000
vt 0.000000 0.000000
vt 0.000000 0.000000
vt 0.000000 0.000000
vt 0.000000 0.000000
vt 0.000000 0.000000
vt 0.000000 0.000000
vt 0.000000 0.000000
vt 0.000000 0.000000
vt 0.000000 0.000000
vt 0.000000 0.000000
vt 0.000000 0.000000
vt 0.000000 0.000000
vt 0.000000 0.000000
vt 0.000000 0.000000
vt 0.000000 0.000000
vt 0.000000 0.000000
vt 0.000000 0.000000
vt 0.000000 0.000000
vt 0.000000 0.000000
vt 0.000000 0.000000
vt 0.000000 0.000000
vt 0.000000 0.000000
vt 0.000000 0.000000
vt 0.000000 0.000000
vt 0.000000 0.000000
vt 0.000000 0.000000
vt 0.000000 0.000000
vt 0.000000 0.000000
vt 0.000000 0.000000
vt 0.000000 0.000000
vt 0.000000 0.000000
vt 0.000000 0.000000
vt 0.000000 0.000000
vt 0.000000 0.000000
vt 0.000000 0.000000
vt 0.000000 0.000000
vt 0.000000 0.000000
vt 0.000000 0.000000
vt 0.000000 0.000000
vt 0.000000 0.000000
vt 0.000000 0.000000
vt 0.000000 0.000000
vt 0.000000 0.000000
vt 0.000000 0.000000
vt 0.000000 0.000000
vt 0.000000 0.000000
vt 0.000000 0.000000
vt 0.000000 0.000000
vt 0.000000 0.000000
vt 0.000000 0.000000
vt 0.000000 0.000000
vt 0.000000 0.000000
vt 0.000000 0.000000
vt 0.000000 0.000000
vt 0.000000 0.000000
vt 0.000000 0.000000
vt 0.000000 0.000000
vt 0.000000 0.000000
vt 0.000000 0.000000
vt 0.000000 0.000000
vt 0.000000 0.000000
vt 0.000000 0.000000
vt 0.000000 0.000000
vt 0.000000 0.000000
vt 0.000000 0.000000
vt 0.000000 0.000000
vt 0.000000 0.000000
vt 0.000000 0.000000
vt 0.000000 0.000000
vt 0.000000 0.000000
vt 0.000000 0.000000
vt 0.000000 0.000000
vt 0.000000 0.000000
vt 0.000000 0.000000
vt 0.000000 0.000000
vt 0.000000 0.000000
vt 0.000000 0.000000
vt 0.000000 0.000000
vt 0.000000 0.000000
vt 0.000000 0.000000
vt 0.000000 0.000000
vt 0.000000 0.000000
vt 0.000000 0.000000
vt 0.000000 0.000000
vt 0.000000 0.000000
vt 0.000000 0.000000
vt 0.000000 0.000000
vt 0.000000 0.000000
vt 0.000000 0.000000
vt 0.000000 0.000000
vt 0.000000 0.000000
vt 0.000000 0.000000
vt 0.000000 0.000000
vt 0.000000 0.000000
vt 0.000000 0.000000
vt 0.000000 0.000000
vt 0.000000 0.000000
vt 0.000000 0.000000
vt 0.000000 0.000000
vt 0.000000 0.000000
vt 0.000000 0.000000
vt 0.000000 0.000000
vt 0.000000 0.000000
vt 0.000000 0.000000
vt 0.000000 0.000000
vt 0.000000 0.000000
vt 0.000000 0.000000
vt 0.000000 0.000000
vt 0.000000 0.000000
vt 0.000000 0.000000
vt 0.000000 0.000000
vt 0.000000 0.000000
vt 0.000000 0.000000
vt 0.000000 0.000000
vt 0.000000 0.000000
vt 0.000000 0.000000
vt 0.000000 0.000000
vt 0.000000 0.000000
vt 0.000000 0.000000
vt 0.000000 0.000000
vt 0.000000 0.000000
vt 0.000000 0.000000
vt 0.000000 0.000000
vt 0.000000 0.000000
vt 0.000000 0.000000
vt 0.000000 0.000000
vt 0.000000 0.000000
vt 0.000000 0.000000
vt 0.000000 0.000000
vt 0.000000 0.000000
vt 0.000000 0.000000
vt 0.000000 0.000000
vt 0.000000 0.000000
vt 0.000000 0.000000
vt 0.000000 0.000000
vt 0.000000 0.000000
vn 0.0000 0.0000 -1.0000
vn 0.0000 -1.0000 -0.0000
vn 0.0000 1.0000 0.0000
vn 1.0000 -0.0000 0.0000
vn -0.4337 0.2439 -0.8674
vn -0.6516 -0.0000 -0.7585
vn 0.0000 -0.0000 1.0000
vn -1.0000 -0.0000 0.0000
vn 0.9722 -0.2343 0.0000
vn 0.9664 -0.2572 0.0000
vn 0.9663 -0.2572 0.0000
vn -0.9663 0.2572 0.0000
vn -0.9664 0.2572 0.0000
vn -0.9722 0.2343 0.0000
vn -0.9822 0.1881 0.0000
vn -0.9899 0.1414 0.0000
vn -0.9900 0.1414 0.0000
vn -0.9930 0.1180 0.0000
vn -0.9930 0.1179 0.0000
vn -0.9975 0.0709 0.0000
vn -0.9989 0.0473 0.0000
vn -0.9989 -0.0473 0.0000
vn -0.9975 -0.0709 0.0000
vn -0.9930 -0.1180 0.0000
vn -0.9899 -0.1414 0.0000
vn -0.9930 -0.1179 0.0000
vn -0.9930 -0.1178 0.0000
vn -0.9822 -0.1881 0.0000
vn -0.9722 -0.2343 0.0000
vn -0.9664 -0.2572 0.0000
vn 0.9664 0.2572 0.0000
vn 0.9722 0.2343 0.0000
vn 0.9822 0.1881 0.0000
vn 0.9899 0.1414 0.0000
vn 0.9900 0.1414 0.0000
vn 0.9930 0.1180 0.0000
vn 0.9930 0.1179 0.0000
vn 0.9930 0.1178 0.0000
vn 0.9975 0.0709 0.0000
vn 0.9989 0.0473 0.0000
vn 0.9989 -0.0473 0.0000
vn 0.9975 -0.0709 0.0000
vn 0.9930 -0.1180 0.0000
vn 0.9899 -0.1414 0.0000
vn 0.9930 -0.1179 0.0000
vn 0.9822 -0.1881 0.0000
vn -0.9955 0.0944 0.0000
vn -0.9955 -0.0943 0.0000
vn -0.9663 -0.2572 0.0000
vn 0.9663 0.2572 0.0000
vn 0.9955 0.0943 0.0000
vn 0.9955 -0.0944 0.0000
vn -0.9955 -0.0945 0.0000
vn -0.9900 -0.1414 0.0000
vn 0.9955 -0.0945 0.0000
vn 0.9900 -0.1414 0.0000
vn 0.9955 0.0945 0.0000
vn -0.9955 0.0945 0.0000
usemtl wire_028089177
s 1
f 8/1/1 7/2/1 24/3/1 16/4/1
f 16/4/1 24/3/1 25/5/1 20/6/1
f 20/6/1 25/5/1 22/7/1 21/8/1
f 21/8/1 22/7/1 13/9/1 19/10/1
f 19/10/1 13/9/1 12/11/1 18/12/1
f 18/12/1 12/11/1 23/13/1 17/14/1
f 17/14/1 23/13/1 2/15/1 15/16/1
f 15/16/1 2/15/1 1/17/1 14/18/1
f 14/18/1 1/17/1 3/19/1 11/20/1
f 11/20/1 3/19/1 5/21/1 10/22/1
f 10/22/1 5/21/1 6/23/1 9/24/1
usemtl wire_143224087
f 53/25/1 37/26/1 36/27/1 41/28/1
f 53/25/1 41/28/1 42/29/1 51/30/1
f 51/30/1 42/29/1 34/31/1 52/32/1
f 52/32/1 34/31/1 33/33/1 28/34/1
f 28/34/1 33/33/1 55/35/1 29/36/1
f 29/36/1 55/35/1 49/37/1 43/38/1
f 43/38/1 49/37/1 48/39/1 44/40/1
f 44/40/1 48/39/1 54/41/1 26/42/1
f 26/42/1 54/41/1 46/43/1 27/44/1
f 27/44/1 46/43/1 47/45/1 32/46/1
f 32/46/1 47/45/1 50/47/1 31/48/1
f 31/48/1 50/47/1 45/49/1 30/50/1
f 56/51/2 57/52/2 58/53/2 59/54/2
f 60/55/3 61/56/3 62/57/3 63/58/3
f 64/59/1 58/53/1 57/52/1 60/55/1
f 65/60/1 64/59/1 60/55/1 66/61/1
f 67/62/1 66/61/1 60/55/1 68/63/1
f 69/64/1 68/63/1 60/55/1 70/65/1
f 71/66/1 70/65/1 60/55/1 72/67/1
f 73/68/1 72/67/1 60/55/1 74/69/1
f 75/70/1 74/69/1 60/55/1 76/71/1
f 77/72/1 76/71/1 60/55/1 78/73/1
f 79/74/1 78/73/1 60/55/1 80/75/1
f 81/76/1 80/75/1 60/55/1 82/77/1
f 83/78/1 82/77/1 60/55/1 63/58/1
f 84/79/1 83/78/1 63/58/1 85/80/1
f 86/81/1 85/80/1 63/58/1 87/82/1
f 88/83/1 87/82/1 63/58/1 89/84/1
f 90/85/1 89/84/1 63/58/1 91/86/1
f 92/87/1 91/86/1 63/58/1 93/88/1
f 94/89/1 93/88/1 63/58/1 95/90/1
f 96/91/1 95/90/1 63/58/1 97/92/1
f 98/93/1 97/92/1 63/58/1 99/94/1
f 100/95/1 99/94/1 63/58/1 101/96/1
f 101/96/1 63/58/1 58/53/1 64/59/1
f 102/97/4 103/98/4 104/99/4 105/100/5
f 106/101/6 105/100/5 104/99/4 107/102/4
f 108/103/4 107/102/4 104/99/4 109/104/4
f 110/105/4 109/104/4 104/99/4 63/58/4
f 110/105/4 63/58/4 62/57/4 111/106/4
f 58/53/4 63/58/4 104/99/4 112/107/4
f 58/53/4 112/107/4 113/108/4 59/54/4
f 108/103/4 109/104/4 114/109/4 115/110/4
f 106/101/6 107/102/4 116/111/4 117/112/4
f 56/51/7 59/54/7 113/108/7 118/113/7
f 119/114/7 56/51/7 118/113/7 120/115/7
f 121/116/8 61/56/8 60/55/8 122/117/8
f 123/118/8 122/117/8 60/55/8 124/119/8
f 125/120/8 124/119/8 60/55/8 126/121/8
f 127/122/8 126/121/8 60/55/8 128/123/8
f 129/124/8 128/123/8 60/55/8 57/52/8
f 129/124/8 57/52/8 56/51/8 119/114/8
f 127/122/8 128/123/8 130/125/8 131/126/8
f 125/120/8 126/121/8 132/127/8 133/128/8
f 123/118/8 124/119/8 134/129/8 135/130/8
f 136/131/7 111/106/7 62/57/7 61/56/7
f 136/131/7 61/56/7 121/116/7 137/132/7
f 130/125/7 138/133/7 139/134/7 131/126/7
f 131/126/7 139/134/7 140/135/7 141/136/7
f 131/126/7 141/136/7 142/137/7
f 132/127/7 143/138/7 144/139/7 133/128/7
f 133/128/7 144/139/7 145/140/7 146/141/7
f 133/128/7 146/141/7 147/142/7
f 134/129/7 148/143/7 149/144/7 135/130/7
f 135/130/7 149/144/7 150/145/7 151/146/7
f 135/130/7 151/146/7 152/147/7
f 123/118/7 153/148/7 154/149/7 122/117/7
f 136/131/2 155/150/2 110/105/2 111/106/2
f 156/151/7 107/102/7 108/103/7 157/152/7
f 157/152/7 108/103/7 158/153/7
f 159/154/7 105/100/7 106/101/7 160/155/7
f 160/155/7 106/101/7 161/156/7
f 162/157/7 117/112/7 116/111/7 163/158/7
f 164/159/7 163/158/7 116/111/7 165/160/7
f 165/160/7 116/111/7 166/161/7
f 167/162/7 103/98/7 102/97/7 168/163/7
f 169/164/7 168/163/7 102/97/7 170/165/7
f 170/165/7 102/97/7 171/166/7
f 172/167/7 115/110/7 114/109/7 173/168/7
f 174/169/7 173/168/7 114/109/7 175/170/7
f 175/170/7 114/109/7 176/171/7
f 139/134/9 138/133/10 177/172/10 66/61/9
f 66/61/9 177/172/10 65/60/10
f 177/172/10 178/173/11 64/59/11 65/60/10
f 178/173/3 120/115/3 118/113/3 64/59/3
f 101/96/3 64/59/3 118/113/3 179/174/3
f 179/174/12 180/175/13 100/95/13 101/96/12
f 167/162/13 168/163/14 99/94/14 180/175/13
f 180/175/13 99/94/14 100/95/13
f 168/163/14 169/164/15 98/93/15 99/94/14
f 169/164/15 170/165/16 97/92/17 98/93/15
f 170/165/16 171/166/18 159/154/19 97/92/17
f 97/92/17 159/154/19 96/91/19
f 162/157/20 163/158/21 93/88/21 161/156/20
f 161/156/20 93/88/21 94/89/20
f 163/158/21 164/159/8 92/87/8 93/88/21
f 164/159/8 165/160/22 91/86/22 92/87/8
f 165/160/22 166/161/23 156/151/23 91/86/22
f 91/86/22 156/151/23 90/85/23
f 172/167/24 173/168/25 87/82/25 158/153/26
f 158/153/26 87/82/25 88/83/27
f 173/168/25 174/169/28 86/81/28 87/82/25
f 174/169/28 175/170/29 85/80/29 86/81/28
f 175/170/29 176/171/30 181/176/30 85/80/29
f 85/80/29 181/176/30 84/79/30
f 152/147/31 151/146/32 80/75/32 153/148/31
f 153/148/31 80/75/32 81/76/31
f 151/146/32 150/145/33 79/74/33 80/75/32
f 150/145/33 149/144/34 78/73/35 79/74/33
f 149/144/34 148/143/36 182/177/37 78/73/35
f 78/73/35 182/177/37 77/72/38
f 147/142/39 146/141/40 74/69/40 183/178/39
f 183/178/39 74/69/40 75/70/39
f 146/141/40 145/140/4 73/68/4 74/69/40
f 145/140/4 144/139/41 72/67/41 73/68/4
f 144/139/41 143/138/42 184/179/42 72/67/41
f 72/67/41 184/179/42 71/66/42
f 142/137/43 141/136/44 68/63/44 185/180/45
f 185/180/45 68/63/44 69/64/45
f 141/136/44 140/135/46 67/62/46 68/63/44
f 140/135/46 139/134/9 66/61/9 67/62/46
f 121/116/2 122/117/2 154/149/2 137/132/2
f 127/122/7 185/180/7 186/181/7 126/121/7
f 126/121/7 186/181/7 184/179/7
f 154/149/2 82/77/2 83/78/2 137/132/2
f 136/131/2 137/132/2 83/78/2 155/150/2
f 125/120/7 183/178/7 187/182/7 124/119/7
f 124/119/7 187/182/7 182/177/7
f 181/176/7 109/104/7 110/105/7 155/150/7
f 160/155/47 161/156/20 94/89/20 95/90/47
f 156/151/23 157/152/48 89/84/48 90/85/23
f 157/152/48 158/153/26 88/83/27 89/84/48
f 181/176/30 155/150/49 83/78/49 84/79/30
f 154/149/50 153/148/31 81/76/31 82/77/50
f 182/177/37 187/182/51 76/71/51 77/72/38
f 187/182/51 183/178/39 75/70/39 76/71/51
f 184/179/42 186/181/52 70/65/52 71/66/42
f 186/181/52 185/180/45 69/64/45 70/65/52
f 159/154/19 160/155/47 95/90/47 96/91/19
f 127/122/3 131/126/3 142/137/3 185/180/3
f 159/154/3 171/166/3 102/97/3 105/100/3
f 156/151/3 166/161/3 116/111/3 107/102/3
f 125/120/3 133/128/3 147/142/3 183/178/3
f 123/118/3 135/130/3 152/147/3 153/148/3
f 181/176/3 176/171/3 114/109/3 109/104/3
f 134/129/2 124/119/2 182/177/2 148/143/2
f 172/167/2 158/153/2 108/103/2 115/110/2
f 132/127/2 126/121/2 184/179/2 143/138/2
f 162/157/2 161/156/2 106/101/2 117/112/2
f 129/124/7 178/173/7 177/172/7 128/123/7
f 129/124/3 119/114/3 120/115/3 178/173/3
f 130/125/2 128/123/2 177/172/2 138/133/2
f 180/175/7 179/174/7 112/107/7 104/99/7
f 167/162/2 180/175/2 104/99/2 103/98/2
f 179/174/3 118/113/3 113/108/3 112/107/3
usemtl wire_134006006
f 188/183/53 189/184/54 190/185/54 191/186/53
f 192/187/1 193/188/1 194/189/1 195/190/1
f 195/190/1 194/189/1 196/191/1 197/192/1
f 197/192/1 196/191/1 198/193/1 199/194/1
f 199/194/1 198/193/1 200/195/1 201/196/1
f 201/196/1 200/195/1 202/197/1 203/198/1
f 203/198/1 202/197/1 204/199/1 205/200/1
f 205/200/1 204/199/1 206/201/1 207/202/1
f 207/202/1 206/201/1 191/186/1 208/203/1
f 208/203/1 191/186/1 190/185/1 209/204/1
f 209/204/1 190/185/1 210/205/1 211/206/1
f 211/206/1 210/205/1 212/207/1 213/208/1
f 213/208/1 212/207/1 214/209/1 215/210/1
f 216/211/15 217/212/17 198/193/17 196/191/15
f 218/213/41 219/214/55 201/196/55 203/198/41
f 220/215/22 188/183/53 191/186/53 206/201/22
f 221/216/32 222/217/33 211/206/33 213/208/32
f 223/218/40 224/219/4 205/200/4 207/202/40
f 225/220/14 216/211/15 196/191/15 194/189/14
f 226/221/13 225/220/14 194/189/14 193/188/13
f 226/221/2 193/188/2 192/187/2 227/222/2
f 228/223/8 220/215/22 206/201/22 204/199/8
f 219/214/55 229/224/56 199/194/56 201/196/55
f 214/209/3 230/225/3 231/226/3 215/210/3
f 232/227/9 227/222/10 192/187/10 195/190/9
f 233/228/57 223/218/40 207/202/40 208/203/57
f 189/184/54 234/229/28 210/205/28 190/185/54
f 225/220/7 226/221/7 227/222/7 232/227/7
f 225/220/7 232/227/7 235/230/7 216/211/7
f 217/212/7 216/211/7 235/230/7 229/224/7
f 217/212/7 229/224/7 219/214/7 236/231/7
f 237/232/7 236/231/7 219/214/7 218/213/7
f 228/223/7 237/232/7 218/213/7 224/219/7
f 228/223/7 224/219/7 223/218/7 220/215/7
f 188/183/7 220/215/7 223/218/7 233/228/7
f 189/184/7 188/183/7 233/228/7 238/233/7
f 234/229/7 189/184/7 238/233/7 222/217/7
f 234/229/7 222/217/7 221/216/7 239/234/7
f 239/234/7 221/216/7 231/226/7 230/225/7
f 235/230/46 232/227/9 195/190/9 197/192/46
f 236/231/58 237/232/21 202/197/21 200/195/58
f 217/212/17 236/231/58 200/195/58 198/193/17
f 229/224/56 235/230/46 197/192/46 199/194/56
f 239/234/29 230/225/30 214/209/30 212/207/29
f 224/219/4 218/213/41 203/198/41 205/200/4
f 238/233/35 233/228/57 208/203/57 209/204/35
f 231/226/31 221/216/32 213/208/32 215/210/31
f 222/217/33 238/233/35 209/204/35 211/206/33
f 234/229/28 239/234/29 212/207/29 210/205/28
f 237/232/21 228/223/8 204/199/8 202/197/21
l 35 38
l 35 39
