# Blender v3.0.0 OBJ File: ''
# www.blender.org
mtllib Door.mtl
v 1.609421 10.154804 -0.250000
v 1.609421 2.324897 -0.250000
v 1.602378 10.145647 0.250000
v 1.602378 2.313120 0.250000
v 0.497912 10.154804 -0.250000
v 0.497912 2.324897 -0.250000
v 0.477599 10.145647 0.250000
v 0.477599 2.313120 0.250000
v -2.495366 0.137511 0.250000
v -2.495366 11.335702 0.250000
v 2.495366 11.335702 0.250000
v 2.495366 0.137511 0.250000
v 2.495366 0.137511 -0.250000
v -2.495366 0.137511 -0.250000
v 2.495366 11.335702 -0.250000
v -2.495366 11.335702 -0.250000
v 0.477599 10.145647 0.250000
v 0.477599 2.313120 0.250000
v 0.477599 5.332257 0.250000
v 0.477599 5.586286 0.250000
v 0.497912 5.596316 -0.250000
v 0.497912 5.343161 -0.250000
v 1.602378 5.586286 0.250000
v 1.602378 5.332257 0.250000
v 1.609421 5.596316 -0.250000
v 1.609421 5.343161 -0.250000
vt 0.875000 0.500000
vt 0.625000 0.750000
vt 0.625000 0.500000
vt 0.625000 0.000000
vt 0.375000 0.250000
vt 0.375000 0.000000
vt 0.375000 0.500000
vt 0.125000 0.750000
vt 0.125000 0.500000
vt 0.375000 0.750000
vt 0.387802 0.987198
vt 0.625000 1.000000
vt 0.375000 1.000000
vt 0.537399 0.762802
vt 0.462601 0.762802
vt 0.612198 0.987198
vt 0.387802 0.762802
vt 0.682078 0.418073
vt 0.816980 0.483472
vt 0.412274 0.287274
vt 0.547176 0.491678
vt 0.547176 0.352673
vt 0.620782 0.495781
vt 0.473570 0.487575
vt 0.612198 0.762802
vt 0.000000 0.000000
vt 0.000000 0.000000
vt 0.875000 0.750000
vt 0.625000 0.250000
vt 0.399965 0.483472
vn 0.0000 1.0000 0.0000
vn -1.0000 0.0000 0.0000
vn 0.0000 -1.0000 0.0000
vn 1.0000 0.0000 0.0000
vn 0.0000 0.0000 1.0000
vn 0.9992 0.0000 0.0406
vn 0.0000 0.0000 -1.0000
vn -0.9999 0.0000 -0.0141
vn 0.0000 -0.9998 -0.0183
vn 0.0000 0.9997 0.0235
vn 0.9999 0.0000 0.0141
vn 0.0000 0.9998 0.0218
vn 0.0000 -0.9998 -0.0201
g DoorLeft_Cube_Material
usemtl Material
s off
f 16/1/1 11/2/1 15/3/1
f 10/4/2 14/5/2 9/6/2
f 13/7/3 9/8/3 14/9/3
f 15/3/4 12/10/4 13/7/4
f 8/11/5 10/12/5 9/13/5
f 23/14/5 24/15/5 12/10/5
f 7/16/5 11/2/5 10/12/5
f 8/11/5 12/10/5 4/17/5
f 21/18/6 5/19/6 7/16/6
f 6/20/7 13/7/7 14/5/7
f 25/21/7 15/3/7 13/7/7
f 21/18/7 22/22/7 14/5/7
f 5/19/7 15/3/7 1/23/7
f 25/21/8 26/24/8 23/14/8
f 3/25/9 5/19/9 1/23/9
f 4/17/10 6/20/10 8/11/10
f 20/26/6 22/22/6 21/18/6
f 23/14/11 26/24/11 25/21/11
f 22/22/12 24/15/12 26/24/12
f 21/18/13 23/14/13 20/26/13
f 23/14/7 19/27/7 20/26/7
f 22/22/5 25/21/5 21/18/5
f 16/1/1 10/28/1 11/2/1
f 10/4/2 16/29/2 14/5/2
f 13/7/3 12/10/3 9/8/3
f 15/3/4 11/2/4 12/10/4
f 8/11/5 7/16/5 10/12/5
f 11/2/5 3/25/5 23/14/5
f 24/15/5 4/17/5 12/10/5
f 11/2/5 23/14/5 12/10/5
f 7/16/5 3/25/5 11/2/5
f 8/11/5 9/13/5 12/10/5
f 7/16/6 8/11/6 21/18/6
f 8/11/6 6/20/6 22/22/6
f 22/22/6 21/18/6 8/11/6
f 6/20/7 2/30/7 13/7/7
f 13/7/7 2/30/7 26/24/7
f 25/21/7 1/23/7 15/3/7
f 13/7/7 26/24/7 25/21/7
f 16/1/7 5/19/7 21/18/7
f 22/22/7 6/20/7 14/5/7
f 16/1/7 21/18/7 14/5/7
f 5/19/7 16/1/7 15/3/7
f 2/30/8 4/17/8 24/15/8
f 23/14/8 3/25/8 25/21/8
f 3/25/8 1/23/8 25/21/8
f 2/30/8 24/15/8 26/24/8
f 24/15/8 23/14/8 26/24/8
f 3/25/9 7/16/9 5/19/9
f 4/17/10 2/30/10 6/20/10
f 20/26/6 19/27/6 22/22/6
f 23/14/11 24/15/11 26/24/11
f 22/22/12 19/27/12 24/15/12
f 21/18/13 25/21/13 23/14/13
f 23/14/7 24/15/7 19/27/7
f 22/22/5 26/24/5 25/21/5
l 20 17
l 18 19
