# Blender v3.0.0 OBJ File: 'Door2.blend'
# www.blender.org
mtllib ExitSign.mtl
v -1.283813 6.181844 -13.635095
v -1.283813 7.827541 -13.635095
v -1.115132 6.289958 -14.414197
v -1.115132 7.719427 -14.414197
v 1.283813 6.181844 -13.635095
v 1.283813 7.827541 -13.635095
v 1.115132 6.289958 -14.414197
v 1.115132 7.719427 -14.414197
v -1.283813 7.827541 -14.414197
v -1.283813 6.181844 -14.414197
v 1.283813 6.181844 -14.414197
v 1.283813 7.827541 -14.414197
v -1.115132 6.289958 -14.362001
v -1.115132 7.719427 -14.362001
v 1.115132 6.289958 -14.362001
v 1.115132 7.719427 -14.362001
vt 0.625000 0.000000
vt 0.375000 0.250000
vt 0.375000 0.000000
vt 0.608576 0.483576
vt 0.608576 0.266424
vt 0.608576 0.266424
vt 0.625000 0.500000
vt 0.375000 0.750000
vt 0.375000 0.500000
vt 0.625000 0.750000
vt 0.375000 1.000000
vt 0.125000 0.750000
vt 0.125000 0.500000
vt 0.875000 0.500000
vt 0.391424 0.266424
vt 0.625000 0.250000
vt 0.391424 0.483576
vt 0.391424 0.266424
vt 0.608576 0.483576
vt 0.391424 0.483576
vt 0.625000 1.000000
vt 0.875000 0.750000
vn -1.0000 0.0000 0.0000
vn 0.0000 -1.0000 0.0000
vn 1.0000 0.0000 0.0000
vn 0.0000 0.0000 1.0000
vn 0.0000 1.0000 0.0000
vn 0.0000 0.0000 -1.0000
g Cube.004_Cube.005_None
usemtl None
s off
f 2/1/1 10/2/1 1/3/1
f 8/4/2 14/5/2 4/6/2
f 12/7/3 5/8/3 11/9/3
f 6/10/4 1/11/4 5/8/4
f 11/9/2 1/12/2 10/13/2
f 9/14/5 6/10/5 12/7/5
f 3/15/6 9/16/6 4/6/6
f 7/17/6 10/2/6 3/15/6
f 4/6/6 12/7/6 8/4/6
f 8/4/6 11/9/6 7/17/6
f 4/6/3 13/18/3 3/15/3
f 7/17/1 16/19/1 8/4/1
f 3/15/5 15/20/5 7/17/5
f 14/5/6 15/20/6 13/18/6
f 2/1/1 9/16/1 10/2/1
f 8/4/2 16/19/2 14/5/2
f 12/7/3 6/10/3 5/8/3
f 6/10/4 2/21/4 1/11/4
f 11/9/2 5/8/2 1/12/2
f 9/14/5 2/22/5 6/10/5
f 3/15/6 10/2/6 9/16/6
f 7/17/6 11/9/6 10/2/6
f 4/6/6 9/16/6 12/7/6
f 8/4/6 12/7/6 11/9/6
f 4/6/3 14/5/3 13/18/3
f 7/17/1 15/20/1 16/19/1
f 3/15/5 13/18/5 15/20/5
f 14/5/6 16/19/6 15/20/6
v 0.000000 7.784184 -14.198839
v 0.000000 9.884185 -14.198839
v 0.034141 7.784184 -14.195477
v 0.034141 9.884185 -14.195477
v 0.066970 7.784184 -14.185518
v 0.066970 9.884185 -14.185518
v 0.097225 7.784184 -14.169346
v 0.097225 9.884185 -14.169346
v 0.123744 7.784184 -14.147583
v 0.123744 9.884185 -14.147583
v 0.145507 7.784184 -14.121064
v 0.145507 9.884185 -14.121064
v 0.161679 7.784184 -14.090809
v 0.161679 9.884185 -14.090809
v 0.171637 7.784184 -14.057980
v 0.171637 9.884185 -14.057980
v 0.175000 7.784184 -14.023839
v 0.175000 9.884185 -14.023839
v 0.171637 7.784184 -13.989698
v 0.171637 9.884185 -13.989698
v 0.161679 7.784184 -13.956869
v 0.161679 9.884185 -13.956869
v 0.145507 7.784184 -13.926614
v 0.145507 9.884185 -13.926614
v 0.123744 7.784184 -13.900095
v 0.123744 9.884185 -13.900095
v 0.097225 7.784184 -13.878332
v 0.097225 9.884185 -13.878332
v 0.066970 7.784184 -13.862160
v 0.066970 9.884185 -13.862160
v 0.034141 7.784184 -13.852201
v 0.034141 9.884185 -13.852201
v -0.000000 7.784184 -13.848839
v -0.000000 9.884185 -13.848839
v -0.034141 7.784184 -13.852201
v -0.034141 9.884185 -13.852201
v -0.066970 7.784184 -13.862160
v -0.066970 9.884185 -13.862160
v -0.097225 7.784184 -13.878332
v -0.097225 9.884185 -13.878332
v -0.123744 7.784184 -13.900095
v -0.123744 9.884185 -13.900095
v -0.145507 7.784184 -13.926614
v -0.145507 9.884185 -13.926614
v -0.161679 7.784184 -13.956869
v -0.161679 9.884185 -13.956869
v -0.171637 7.784184 -13.989698
v -0.171637 9.884185 -13.989698
v -0.175000 7.784184 -14.023839
v -0.175000 9.884185 -14.023839
v -0.171637 7.784184 -14.057980
v -0.171637 9.884185 -14.057980
v -0.161679 7.784184 -14.090809
v -0.161679 9.884185 -14.090809
v -0.145507 7.784184 -14.121064
v -0.145507 9.884185 -14.121064
v -0.123744 7.784184 -14.147583
v -0.123744 9.884185 -14.147583
v -0.097225 7.784184 -14.169346
v -0.097225 9.884185 -14.169346
v -0.066970 7.784184 -14.185518
v -0.066970 9.884185 -14.185518
v -0.034141 7.784184 -14.195477
v -0.034141 9.884185 -14.195477
vt 1.000000 1.000000
vt 0.968750 0.500000
vt 1.000000 0.500000
vt 0.968750 1.000000
vt 0.937500 0.500000
vt 0.937500 1.000000
vt 0.906250 0.500000
vt 0.906250 1.000000
vt 0.875000 0.500000
vt 0.875000 1.000000
vt 0.843750 0.500000
vt 0.843750 1.000000
vt 0.812500 0.500000
vt 0.812500 1.000000
vt 0.781250 0.500000
vt 0.781250 1.000000
vt 0.750000 0.500000
vt 0.750000 1.000000
vt 0.718750 0.500000
vt 0.718750 1.000000
vt 0.687500 0.500000
vt 0.687500 1.000000
vt 0.656250 0.500000
vt 0.656250 1.000000
vt 0.625000 0.500000
vt 0.625000 1.000000
vt 0.593750 0.500000
vt 0.593750 1.000000
vt 0.562500 0.500000
vt 0.562500 1.000000
vt 0.531250 0.500000
vt 0.531250 1.000000
vt 0.500000 0.500000
vt 0.500000 1.000000
vt 0.468750 0.500000
vt 0.468750 1.000000
vt 0.437500 0.500000
vt 0.437500 1.000000
vt 0.406250 0.500000
vt 0.406250 1.000000
vt 0.375000 0.500000
vt 0.375000 1.000000
vt 0.343750 0.500000
vt 0.343750 1.000000
vt 0.312500 0.500000
vt 0.312500 1.000000
vt 0.281250 0.500000
vt 0.281250 1.000000
vt 0.250000 0.500000
vt 0.250000 1.000000
vt 0.218750 0.500000
vt 0.218750 1.000000
vt 0.187500 0.500000
vt 0.187500 1.000000
vt 0.156250 0.500000
vt 0.156250 1.000000
vt 0.125000 0.500000
vt 0.125000 1.000000
vt 0.093750 0.500000
vt 0.093750 1.000000
vt 0.062500 0.500000
vt 0.028269 0.341844
vt 0.158156 0.028269
vt 0.471731 0.158156
vt 0.062500 1.000000
vt 0.031250 0.500000
vt 0.031250 1.000000
vt 0.000000 0.500000
vt 0.985388 0.296822
vt 0.796822 0.014612
vt 0.514612 0.203178
vt 0.341844 0.471731
vt 0.296822 0.485388
vt 0.158156 0.471731
vt 0.250000 0.490000
vt 0.203178 0.485388
vt 0.116663 0.449553
vt 0.080294 0.419706
vt 0.050447 0.383337
vt 0.014612 0.296822
vt 0.010000 0.250000
vt 0.014612 0.203178
vt 0.028269 0.158156
vt 0.050447 0.116663
vt 0.080294 0.080294
vt 0.116663 0.050447
vt 0.203178 0.014612
vt 0.250000 0.010000
vt 0.296822 0.014612
vt 0.341844 0.028269
vt 0.383337 0.050447
vt 0.419706 0.080294
vt 0.449553 0.116663
vt 0.485388 0.203178
vt 0.490000 0.250000
vt 0.485388 0.296822
vt 0.471731 0.341844
vt 0.449553 0.383337
vt 0.419706 0.419706
vt 0.383337 0.449553
vt 0.000000 1.000000
vt 0.703178 0.485388
vt 0.750000 0.490000
vt 0.796822 0.485388
vt 0.841844 0.471731
vt 0.883337 0.449553
vt 0.919706 0.419706
vt 0.949553 0.383337
vt 0.971731 0.341844
vt 0.990000 0.250000
vt 0.985388 0.203178
vt 0.971731 0.158156
vt 0.949553 0.116663
vt 0.919706 0.080294
vt 0.883337 0.050447
vt 0.841844 0.028269
vt 0.750000 0.010000
vt 0.703178 0.014612
vt 0.658156 0.028269
vt 0.616663 0.050447
vt 0.580294 0.080294
vt 0.550447 0.116663
vt 0.528269 0.158156
vt 0.510000 0.250000
vt 0.514612 0.296822
vt 0.528269 0.341844
vt 0.550447 0.383337
vt 0.580294 0.419706
vt 0.616663 0.449553
vt 0.658156 0.471731
vn 0.0000 0.6857 -0.7279
vn 0.1420 -0.6857 -0.7139
vn 0.0000 -0.6857 -0.7279
vn 0.1420 0.6857 -0.7139
vn 0.2786 -0.6858 -0.6724
vn 0.2785 0.6857 -0.6725
vn 0.4044 -0.6857 -0.6052
vn 0.4043 0.6856 -0.6053
vn 0.5147 -0.6857 -0.5146
vn 0.5147 0.6857 -0.5147
vn 0.6052 -0.6857 -0.4044
vn 0.6052 0.6857 -0.4043
vn 0.6724 -0.6857 -0.2786
vn 0.6725 0.6857 -0.2785
vn 0.7139 -0.6857 -0.1420
vn 0.7139 0.6857 -0.1420
vn 0.7279 -0.6857 0.0000
vn 0.7279 0.6857 0.0000
vn 0.7139 -0.6857 0.1420
vn 0.7139 0.6857 0.1420
vn 0.6724 -0.6857 0.2786
vn 0.6725 0.6857 0.2785
vn 0.6052 -0.6857 0.4044
vn 0.6052 0.6857 0.4043
vn 0.5147 -0.6857 0.5146
vn 0.5147 0.6857 0.5147
vn 0.4044 -0.6857 0.6052
vn 0.4043 0.6856 0.6053
vn 0.2785 -0.6857 0.6725
vn 0.2785 0.6857 0.6725
vn 0.1420 -0.6857 0.7139
vn 0.1420 0.6857 0.7139
vn 0.0000 -0.6856 0.7280
vn 0.0000 0.6857 0.7279
vn -0.1420 -0.6857 0.7139
vn -0.1420 0.6856 0.7140
vn -0.2785 -0.6856 0.6726
vn -0.2785 0.6857 0.6725
vn -0.4044 -0.6857 0.6052
vn -0.4043 0.6856 0.6053
vn -0.5147 -0.6857 0.5148
vn -0.5147 0.6857 0.5147
vn -0.6052 -0.6857 0.4044
vn -0.6052 0.6857 0.4044
vn -0.6725 -0.6857 0.2785
vn -0.6725 0.6857 0.2785
vn -0.7139 -0.6857 0.1420
vn -0.7139 0.6857 0.1420
vn -0.7279 -0.6857 0.0000
vn -0.7279 0.6857 0.0000
vn -0.7139 -0.6857 -0.1420
vn -0.7139 0.6857 -0.1420
vn -0.6725 -0.6857 -0.2785
vn -0.6725 0.6857 -0.2785
vn -0.6052 -0.6857 -0.4044
vn -0.6052 0.6857 -0.4044
vn -0.5147 -0.6857 -0.5147
vn -0.5147 0.6857 -0.5147
vn -0.4044 -0.6857 -0.6052
vn -0.4043 0.6856 -0.6053
vn -0.2785 -0.6856 -0.6726
vn -0.2785 0.6857 -0.6725
vn -0.1420 -0.6857 -0.7139
vn -0.1420 0.6857 -0.7139
g Cylinder.022_Cylinder.022_None
usemtl None
s 1
f 18/23/7 19/24/8 17/25/9
f 20/26/10 21/27/11 19/24/8
f 22/28/12 23/29/13 21/27/11
f 24/30/14 25/31/15 23/29/13
f 26/32/16 27/33/17 25/31/15
f 28/34/18 29/35/19 27/33/17
f 30/36/20 31/37/21 29/35/19
f 32/38/22 33/39/23 31/37/21
f 34/40/24 35/41/25 33/39/23
f 36/42/26 37/43/27 35/41/25
f 38/44/28 39/45/29 37/43/27
f 40/46/30 41/47/31 39/45/29
f 42/48/32 43/49/33 41/47/31
f 44/50/34 45/51/35 43/49/33
f 46/52/36 47/53/37 45/51/35
f 48/54/38 49/55/39 47/53/37
f 50/56/40 51/57/41 49/55/39
f 52/58/42 53/59/43 51/57/41
f 54/60/44 55/61/45 53/59/43
f 56/62/46 57/63/47 55/61/45
f 58/64/48 59/65/49 57/63/47
f 60/66/50 61/67/51 59/65/49
f 62/68/52 63/69/53 61/67/51
f 64/70/54 65/71/55 63/69/53
f 66/72/56 67/73/57 65/71/55
f 68/74/58 69/75/59 67/73/57
f 70/76/60 71/77/61 69/75/59
f 72/78/62 73/79/63 71/77/61
f 74/80/64 75/81/65 73/79/63
f 76/82/66 77/83/67 75/81/65
f 70/84/60 54/85/44 38/86/28
f 78/87/68 79/88/69 77/83/67
f 80/89/70 17/90/9 79/88/69
f 31/91/21 47/92/37 63/93/53
f 18/23/7 20/26/10 19/24/8
f 20/26/10 22/28/12 21/27/11
f 22/28/12 24/30/14 23/29/13
f 24/30/14 26/32/16 25/31/15
f 26/32/16 28/34/18 27/33/17
f 28/34/18 30/36/20 29/35/19
f 30/36/20 32/38/22 31/37/21
f 32/38/22 34/40/24 33/39/23
f 34/40/24 36/42/26 35/41/25
f 36/42/26 38/44/28 37/43/27
f 38/44/28 40/46/30 39/45/29
f 40/46/30 42/48/32 41/47/31
f 42/48/32 44/50/34 43/49/33
f 44/50/34 46/52/36 45/51/35
f 46/52/36 48/54/38 47/53/37
f 48/54/38 50/56/40 49/55/39
f 50/56/40 52/58/42 51/57/41
f 52/58/42 54/60/44 53/59/43
f 54/60/44 56/62/46 55/61/45
f 56/62/46 58/64/48 57/63/47
f 58/64/48 60/66/50 59/65/49
f 60/66/50 62/68/52 61/67/51
f 62/68/52 64/70/54 63/69/53
f 64/70/54 66/72/56 65/71/55
f 66/72/56 68/74/58 67/73/57
f 68/74/58 70/76/60 69/75/59
f 70/76/60 72/78/62 71/77/61
f 72/78/62 74/80/64 73/79/63
f 74/80/64 76/82/66 75/81/65
f 76/82/66 78/87/68 77/83/67
f 22/94/12 20/95/10 78/96/68
f 20/95/10 18/97/7 78/96/68
f 18/97/7 80/98/70 78/96/68
f 78/96/68 76/99/66 74/100/64
f 74/100/64 72/101/62 78/96/68
f 72/101/62 70/84/60 78/96/68
f 70/84/60 68/102/58 66/103/56
f 66/103/56 64/104/54 62/105/52
f 62/105/52 60/106/50 58/107/48
f 58/107/48 56/108/46 54/85/44
f 54/85/44 52/109/42 50/110/40
f 50/110/40 48/111/38 46/112/36
f 46/112/36 44/113/34 42/114/32
f 42/114/32 40/115/30 38/86/28
f 38/86/28 36/116/26 34/117/24
f 34/117/24 32/118/22 30/119/20
f 30/119/20 28/120/18 26/121/16
f 26/121/16 24/122/14 22/94/12
f 70/84/60 66/103/56 54/85/44
f 66/103/56 62/105/52 54/85/44
f 62/105/52 58/107/48 54/85/44
f 54/85/44 50/110/40 46/112/36
f 46/112/36 42/114/32 54/85/44
f 42/114/32 38/86/28 54/85/44
f 38/86/28 34/117/24 22/94/12
f 34/117/24 30/119/20 22/94/12
f 30/119/20 26/121/16 22/94/12
f 22/94/12 78/96/68 70/84/60
f 22/94/12 70/84/60 38/86/28
f 78/87/68 80/89/70 79/88/69
f 80/89/70 18/123/7 17/90/9
f 79/124/69 17/125/9 19/126/8
f 19/126/8 21/127/11 23/128/13
f 23/128/13 25/129/15 27/130/17
f 27/130/17 29/131/19 31/91/21
f 31/91/21 33/132/23 35/133/25
f 35/133/25 37/134/27 39/135/29
f 39/135/29 41/136/31 43/137/33
f 43/137/33 45/138/35 47/92/37
f 47/92/37 49/139/39 51/140/41
f 51/140/41 53/141/43 55/142/45
f 55/142/45 57/143/47 59/144/49
f 59/144/49 61/145/51 63/93/53
f 63/93/53 65/146/55 67/147/57
f 67/147/57 69/148/59 63/93/53
f 69/148/59 71/149/61 63/93/53
f 71/149/61 73/150/63 79/124/69
f 73/150/63 75/151/65 79/124/69
f 75/151/65 77/152/67 79/124/69
f 79/124/69 19/126/8 31/91/21
f 19/126/8 23/128/13 31/91/21
f 23/128/13 27/130/17 31/91/21
f 31/91/21 35/133/25 39/135/29
f 39/135/29 43/137/33 31/91/21
f 43/137/33 47/92/37 31/91/21
f 47/92/37 51/140/41 63/93/53
f 51/140/41 55/142/45 63/93/53
f 55/142/45 59/144/49 63/93/53
f 63/93/53 71/149/61 79/124/69
f 79/124/69 31/91/21 63/93/53
